<svg id="Слой_1" data-name="Слой 1" xmlns="http://www.w3.org/2000/svg" viewBox="0 0 247.1 60.9"><defs><style>.cls-1{fill:#2599d5;}.cls-2{fill:#1e1d1b;}</style></defs><title>Artboard 1</title><path class="cls-1" d="M35.1,3V14c-4.9-2.9-9.2-4.4-12.8-4.4a11.27,11.27,0,0,0-8.6,4.1,14.23,14.23,0,0,0-3.6,9.9A13,13,0,0,0,13.9,33a11.82,11.82,0,0,0,9,3.9c3.4,0,7.5-2,12.2-4.8V43.7a42.79,42.79,0,0,1-13.3,2.7c-6.1,0-11-2.5-15.2-7A22.19,22.19,0,0,1,0,23.4,23.39,23.39,0,0,1,6.9,6.9C11.2,2.4,16.1,0,22.3,0A31.68,31.68,0,0,1,35.1,3Z"/><path class="cls-1" d="M41.1.6h9.7V19.7H51L67.3.6h12L60.8,22.2,79.4,45.8H67.6L51,24.7h-.1V45.9H41.2V.6Z"/><polygon class="cls-2" points="133.6 27 149.3 27 149.3 18.2 123.8 18.2 123.8 27 133.6 27"/><polygon class="cls-2" points="133.6 9.9 149.3 9.9 149.3 1 123.8 1 123.8 9.9 133.6 9.9"/><polygon class="cls-2" points="185.9 0.6 185.9 29.7 165.1 0.6 155.5 0.6 155.5 36.5 133.6 36.5 123.8 36.5 99.8 36.5 120.2 0.6 84.7 0.6 84.7 9.9 102.6 9.9 82.1 45.9 123.8 45.9 123.8 45.9 155.5 45.9 155.5 45.9 165.2 45.9 165.2 17.2 185.3 45.9 195.4 45.9 195.4 0.6 185.9 0.6"/><path class="cls-2" d="M202.5.6h9.7V45.8h-9.7Z"/><path class="cls-2" d="M216.6.6H247v9.6H236.6V45.8h-9.7V10.2H216.6Z"/><path class="cls-1" d="M15.1,54.9a4.06,4.06,0,0,0-1.7-.5,1.8,1.8,0,0,0-1.5.7,2.88,2.88,0,0,0-.6,1.9,2.44,2.44,0,0,0,.6,1.8,2.13,2.13,0,0,0,1.5.7,2.34,2.34,0,0,0,1.7-.7l.8,1.1a3.74,3.74,0,0,1-2.6.9,3.25,3.25,0,0,1-2.6-1,3.56,3.56,0,0,1-1-2.8,4,4,0,0,1,1-2.8,3.69,3.69,0,0,1,2.7-1.1,4.28,4.28,0,0,1,2.2.6Z"/><path class="cls-1" d="M24,54.6v6.2H22.5V54.6H20V53.3h6.6v1.3Z"/><path class="cls-1" d="M33,60.7H31.5V53.2c1.2,0,1.9-.1,2-.1a4.76,4.76,0,0,1,2.6.6,2,2,0,0,1,.9,1.7,2.41,2.41,0,0,1-.8,1.9,4,4,0,0,1-2.4.7h-.7v2.7Zm0-3.9h.6a2.65,2.65,0,0,0,1.4-.3,1.05,1.05,0,0,0,.4-1,.79.79,0,0,0-.5-.8,2.76,2.76,0,0,0-1.4-.2H33Z"/><path class="cls-1" d="M45.1,60.9a3.39,3.39,0,0,1-2.6-1,4.42,4.42,0,0,1,0-5.6,3.88,3.88,0,0,1,5.2,0,4.14,4.14,0,0,1,1,2.8,3.71,3.71,0,0,1-1,2.8A3.8,3.8,0,0,1,45.1,60.9Zm0-1.4c1.3,0,1.9-.8,1.9-2.5s-.6-2.6-1.9-2.6-1.9.9-1.9,2.6S43.8,59.5,45.1,59.5Z"/><path class="cls-1" d="M53.7,60.8V53.2h1.5v4.6l3.9-4.7h.7v7.6H58.3V56.1l-3.9,4.7Z"/><path class="cls-1" d="M68.7,54.6v6.2H67.2V54.6H64.7V53.3h6.6v1.3Z"/><path class="cls-1" d="M77.6,54.6v1.7h2.6v1.3H77.6v1.9h3.6v1.3H76.1V53.3h5.2v1.3Z"/><path class="cls-1" d="M90.9,60.7V54.5H89.6a29.72,29.72,0,0,1-.9,4.1,2.67,2.67,0,0,1-1.3,1.7,4.84,4.84,0,0,1-1.8.3V59.2a1.61,1.61,0,0,0,1.3-.6,6.68,6.68,0,0,0,.9-2.3,19.09,19.09,0,0,0,.6-3.3h4.1v7.5H90.9Z"/><path class="cls-1" d="M99.5,56.1c.4,0,.7-.1,1.1-.1a3.59,3.59,0,0,1,2.2.6,2.2,2.2,0,0,1,.8,1.8,2.14,2.14,0,0,1-.8,1.7,3.28,3.28,0,0,1-2.1.6H98V53.2h1.5Zm0,3.3h.8a2.06,2.06,0,0,0,1.3-.3,1.23,1.23,0,0,0,.4-.8,1.14,1.14,0,0,0-.3-.8c-.2-.2-.6-.2-1.2-.2a4.59,4.59,0,0,0-1,.1Z"/><path class="cls-1" d="M113.1,60.7V57.5h-3v3.2h-1.5V53.2h1.5v3h3v-3h1.5v7.5Z"/><path class="cls-1" d="M124.7,60.7,124,59h-2.5l-.6,1.7h-1.6l3.2-7.5h.8l3.2,7.5Zm-2-5.1-.8,2.3h1.6Z"/><path class="cls-1" d="M136.3,60.7h-1.6V57.8h-.5a1.78,1.78,0,0,0-1.7,1.4,2.23,2.23,0,0,1-.7,1.2,2.14,2.14,0,0,1-1.2.4h-.5V59.5h.2a.52.52,0,0,0,.4-.2.85.85,0,0,0,.2-.6,2,2,0,0,1,1.7-1.5c-1.4-.2-2-.9-2-1.9,0-1.4,1.1-2.1,3.2-2.1a17,17,0,0,1,2.3.1v7.4Zm-1.6-4.2V54.6c-.3,0-.6-.1-.9-.1-.9,0-1.4.3-1.4,1s.6,1,1.7,1Z"/><path class="cls-1" d="M155.7,60.8h-.5a1.67,1.67,0,0,1-1.8-1.4,3.38,3.38,0,0,0-.7-1.6,2,2,0,0,0-1.4-.5h-.1v3.4h-1.5V53.2h1.5v3h.2a2.27,2.27,0,0,0,1.3-.3,1.71,1.71,0,0,0,.6-1.2,1.68,1.68,0,0,1,.6-1.1,2,2,0,0,1,1.1-.3h.5v1.3h-.1c-.2,0-.4,0-.4.1a1.54,1.54,0,0,0-.3.7,2.05,2.05,0,0,1-1.8,1.5,3.16,3.16,0,0,1,1.3.7,2.26,2.26,0,0,1,.6,1.3c.1.3.1.5.2.6s.2.1.4.1h.2v1.2Z"/><path class="cls-1" d="M163.5,60.9a3.39,3.39,0,0,1-2.6-1,4.42,4.42,0,0,1,0-5.6,3.88,3.88,0,0,1,5.2,0,4.14,4.14,0,0,1,1,2.8,3.71,3.71,0,0,1-1,2.8A3.8,3.8,0,0,1,163.5,60.9Zm0-1.4c1.3,0,1.9-.8,1.9-2.5s-.6-2.6-1.9-2.6-1.9.9-1.9,2.6S162.2,59.5,163.5,59.5Z"/><path class="cls-1" d="M180.6,60.7h-1.5l-.7-4.2-2.1,4.3h-.5l-2.1-4.3-.7,4.2h-1.6l1.5-7.5h.7l2.5,4.9,2.5-4.9h.7Z"/><path class="cls-1" d="M191.3,60.7h-1.6V54.5H187v6.2h-1.5V53.2h5.9v7.5Z"/><path class="cls-1" d="M201.4,60.7l-.7-1.7h-2.5l-.6,1.7H196l3.2-7.5h.8l3.2,7.5Zm-2-5.1-.8,2.3h1.6Z"/><path class="cls-1" d="M212.1,60.7V57.5h-3v3.2h-1.5V53.2h1.5v3h3v-3h1.5v7.5Z"/><path class="cls-1" d="M219.2,60.8V53.2h1.5v4.6l3.9-4.7h.7v7.6h-1.5V56.1l-3.9,4.7Z"/><path class="cls-1" d="M236.2,60.7h-1.6V57.8h-.5a1.78,1.78,0,0,0-1.7,1.4,2.23,2.23,0,0,1-.7,1.2,2.14,2.14,0,0,1-1.2.4H230V59.5h.2a.52.52,0,0,0,.4-.2.85.85,0,0,0,.2-.6,2,2,0,0,1,1.7-1.5c-1.4-.2-2-.9-2-1.9,0-1.4,1.1-2.1,3.2-2.1a17,17,0,0,1,2.3.1v7.4Zm-1.6-4.2V54.6c-.3,0-.6-.1-.9-.1-.9,0-1.4.3-1.4,1s.6,1,1.7,1Z"/></svg>