<?xml version="1.0" encoding="utf-8"?>
<!-- Generator: Adobe Illustrator 21.0.2, SVG Export Plug-In . SVG Version: 6.00 Build 0)  -->
<svg version="1.1" id="Capa_1" xmlns="http://www.w3.org/2000/svg" xmlns:xlink="http://www.w3.org/1999/xlink" x="0px" y="0px"
	 width="32px" height="39.6px" viewBox="0 0 32 39.6" style="enable-background:new 0 0 32 39.6;" xml:space="preserve">
<style type="text/css">
	.st0{fill:#1E1D1B;}
</style>
<g>
	<g>
		<path class="st0" d="M29.1,6.9C26.1,2.5,21.3,0,16,0S5.9,2.5,2.9,6.9c-3,4.3-3.7,9.9-1.9,14.7c0.5,1.3,1.3,2.6,2.3,3.8l11.6,13.6
			c0.3,0.3,0.6,0.5,1.1,0.5c0.4,0,0.8-0.2,1.1-0.5l11.6-13.6c1-1.2,1.8-2.5,2.3-3.8C32.8,16.7,32.1,11.2,29.1,6.9z M28.4,20.6
			c-0.4,1-1,2-1.8,3c0,0,0,0,0,0L16,36L5.4,23.6c-0.8-1-1.4-2-1.8-3c-1.5-4-0.9-8.6,1.5-12.2C7.6,4.8,11.6,2.8,16,2.8
			c4.4,0,8.4,2.1,10.9,5.7C29.3,12.1,29.9,16.6,28.4,20.6z"/>
	</g>
</g>
<g>
	<g>
		<path class="st0" d="M16,8.2c-4.3,0-7.7,3.5-7.7,7.7s3.5,7.7,7.7,7.7s7.7-3.5,7.7-7.7C23.7,11.7,20.3,8.2,16,8.2z M16,20.9
			c-2.7,0-5-2.2-5-5s2.2-5,5-5s5,2.2,5,5S18.7,20.9,16,20.9z"/>
	</g>
</g>
</svg>
