<?xml version="1.0" encoding="utf-8"?>
<!-- Generator: Adobe Illustrator 21.0.2, SVG Export Plug-In . SVG Version: 6.00 Build 0)  -->
<svg version="1.1" id="Capa_1" xmlns="http://www.w3.org/2000/svg" xmlns:xlink="http://www.w3.org/1999/xlink" x="0px" y="0px"
	 width="19px" height="25px" viewBox="0 0 19 25" style="enable-background:new 0 0 19 25;" xml:space="preserve">
<style type="text/css">
	.st0{fill:#1E1D1B;}
</style>
		<g>
			<path class="st0" d="M6.7,11.5c-0.1-0.2-0.3-0.3-0.5-0.4C6,11,5.7,11,5.4,11H3v4.7h1.4v-1.4h0.9c0.3,0,0.5,0,0.7-0.1
				c0.2-0.1,0.4-0.2,0.6-0.3c0.2-0.1,0.3-0.3,0.4-0.5c0.1-0.2,0.1-0.5,0.1-0.7c0-0.2,0-0.3-0.1-0.5C7,11.9,6.9,11.7,6.7,11.5z
				 M5.7,12.9c0,0.1-0.1,0.1-0.2,0.2c-0.1,0-0.2,0.1-0.2,0.1c-0.1,0-0.2,0-0.3,0H4.4v-1h0.6c0.1,0,0.2,0,0.3,0c0.1,0,0.2,0,0.2,0.1
				c0.1,0,0.1,0.1,0.2,0.1c0,0.1,0.1,0.1,0.1,0.2C5.7,12.8,5.7,12.9,5.7,12.9z"/>
			<path class="st0" d="M11.6,11.7c-0.2-0.2-0.4-0.4-0.7-0.5c-0.3-0.1-0.6-0.2-1-0.2H7.6v4.7h2.1c0.4,0,0.8-0.1,1.1-0.2
				c0.3-0.1,0.6-0.3,0.7-0.5c0.2-0.2,0.3-0.5,0.4-0.7c0.1-0.3,0.1-0.6,0.1-1c0-0.3,0-0.6-0.1-0.9C11.9,12.2,11.8,11.9,11.6,11.7z
				 M10.6,13.7c0,0.1-0.1,0.3-0.1,0.4c-0.1,0.1-0.2,0.2-0.3,0.3c-0.1,0.1-0.3,0.1-0.5,0.1H9v-2.3h0.5c0.3,0,0.5,0,0.6,0.1
				c0.2,0.1,0.3,0.2,0.3,0.3c0.1,0.1,0.1,0.2,0.1,0.4c0,0.1,0,0.2,0,0.3C10.6,13.4,10.6,13.5,10.6,13.7z"/>
			<polygon class="st0" points="12.7,15.7 14.2,15.7 14.2,13.9 16,13.9 16,12.8 14.2,12.8 14.2,12.2 16.3,12.2 16.3,11 12.7,11
				"/>
			<path class="st0" d="M15.5,0.2H0v24.7h19V3.6L15.5,0.2z M17.4,23.2H1.6V1.8h13v2.6h2.7L17.4,23.2L17.4,23.2z"/>
	</g>
</svg>
